<svg width="31" height="31" viewBox="0 0 31 31" fill="none" xmlns="http://www.w3.org/2000/svg">
<g clip-path="url(#clip0_2_103)">
<path d="M29.842 9.20028C29.842 9.20028 29.563 7.13 28.6668 6.21574C27.5323 5.01275 26.255 4.99827 25.6696 4.92401C21.4765 4.59102 15.1778 4.54852 15.1778 4.54852L15.1661 4.54844C15.1661 4.54844 8.86743 4.50594 4.67018 4.78231C4.08379 4.84867 2.80644 4.84591 1.65583 6.03348C0.74738 6.93556 0.446323 9.00193 0.446323 9.00193C0.446323 9.00193 0.125236 11.4314 0.108868 13.8572L0.0935283 16.1305C0.0771603 18.5562 0.359573 20.9898 0.359573 20.9898C0.359573 20.9898 0.638577 23.0601 1.52891 23.9743C2.66339 25.1773 4.16362 25.1464 4.8307 25.2798C7.23144 25.5246 15.0296 25.6475 15.0296 25.6475C15.0296 25.6475 21.3342 25.6783 25.5314 25.4078C26.1178 25.3415 27.3951 25.3442 28.5457 24.1566C29.4542 23.2546 29.7611 21.1882 29.7611 21.1882C29.7611 21.1882 30.0763 18.7645 30.0927 16.333L30.108 14.0596C30.1244 11.6339 29.842 9.20028 29.842 9.20028ZM11.975 18.9705L12.0319 10.5391L20.1066 14.8241L11.975 18.9705Z" fill="white"/>
</g>
<defs>
<clipPath id="clip0_2_103">
<rect width="29.9998" height="29.9998" fill="white" transform="translate(0.202393) rotate(0.386608)"/>
</clipPath>
</defs>
</svg>
